HIERARCHY
ROOT Hip
{
	OFFSET	0.0000	0.0000	0.0000
	CHANNELS 6 Xposition Yposition Zposition Xrotation Yrotation Zrotation
	JOINT LowerSpine
	{
		OFFSET	0.0000	10.1825	-5.5102
		CHANNELS 3 Xrotation Yrotation Zrotation
		JOINT MiddleSpine
		{
			OFFSET	0.0000	9.2923	0.4855
			CHANNELS 3 Xrotation Yrotation Zrotation
			JOINT Chest
			{
				OFFSET	0.0000	11.4981	-2.5593
				CHANNELS 3 Xrotation Yrotation Zrotation
				JOINT Neck
				{
					OFFSET	0.0000	25.9106	-0.5389
					CHANNELS 3 Xrotation Yrotation Zrotation
					JOINT Head
					{
						OFFSET	-0.0001	14.6320	3.9799
						CHANNELS 3 Xrotation Yrotation Zrotation
						End Site
						{
							OFFSET	0.0001	20.4445	0.6104
						}
					}
				}
				JOINT LClavicle
				{
					OFFSET	2.6159	25.0050	8.5669
					CHANNELS 3 Xrotation Yrotation Zrotation
					JOINT LShoulder
					{
						OFFSET	15.2823	3.5866	-5.8035
						CHANNELS 3 Xrotation Yrotation Zrotation
						JOINT LForearm
						{
							OFFSET	32.4627	-0.1151	-0.2813
							CHANNELS 3 Xrotation Yrotation Zrotation
							JOINT LHand
							{
								OFFSET	27.0808	0.0785	-0.1622
								CHANNELS 3 Xrotation Yrotation Zrotation
								JOINT LFinger1
								{
									OFFSET	10.4958	0.9179	2.9152
									CHANNELS 3 Xrotation Yrotation Zrotation
									JOINT LFinger11
									{
										OFFSET	3.9259	-0.9573	0.6918
										CHANNELS 3 Xrotation Yrotation Zrotation
										JOINT LFinger12
										{
											OFFSET	2.6801	-0.6537	0.4724
											CHANNELS 3 Xrotation Yrotation Zrotation
											End Site
											{
												OFFSET	1.9072	-0.5693	0.3094
											}
										}
									}
								}
								JOINT LFinger2
								{
									OFFSET	10.6524	1.0600	0.2538
									CHANNELS 3 Xrotation Yrotation Zrotation
									JOINT LFinger21
									{
										OFFSET	4.8542	0.0135	-0.0287
										CHANNELS 3 Xrotation Yrotation Zrotation
										JOINT LFinger22
										{
											OFFSET	2.6907	0.0083	-0.0164
											CHANNELS 3 Xrotation Yrotation Zrotation
											End Site
											{
												OFFSET	2.4167	-0.1707	0.0032
											}
										}
									}
								}
								JOINT LFinger3
								{
									OFFSET	10.0953	0.7074	-2.3884
									CHANNELS 3 Xrotation Yrotation Zrotation
									JOINT LFinger31
									{
										OFFSET	4.4047	-0.2230	-0.2758
										CHANNELS 3 Xrotation Yrotation Zrotation
										JOINT LFinger32
										{
											OFFSET	2.5100	-0.1263	-0.1577
											CHANNELS 3 Xrotation Yrotation Zrotation
											End Site
											{
												OFFSET	2.2193	-0.2729	-0.1049
											}
										}
									}
								}
								JOINT LFinger4
								{
									OFFSET	9.3681	-0.7119	-4.1247
									CHANNELS 3 Xrotation Yrotation Zrotation
									JOINT LFinger41
									{
										OFFSET	2.7093	-0.5650	-0.7479
										CHANNELS 3 Xrotation Yrotation Zrotation
										JOINT LFinger42
										{
											OFFSET	1.9868	-0.4137	-0.5488
											CHANNELS 3 Xrotation Yrotation Zrotation
											End Site
											{
												OFFSET	1.7634	-0.4845	-0.4046
											}
										}
									}
								}
								JOINT LFinger0
								{
									OFFSET	2.1712	-1.6434	1.6460
									CHANNELS 3 Xrotation Yrotation Zrotation
									JOINT LFinger01
									{
										OFFSET	4.0424	-1.3275	3.0477
										CHANNELS 3 Xrotation Yrotation Zrotation
										JOINT LFinger02
										{
											OFFSET	2.6619	-0.9525	1.9178
											CHANNELS 3 Xrotation Yrotation Zrotation
											End Site
											{
												OFFSET	1.9575	-0.6738	1.3404
											}
										}
									}
								}
							}
						}
					}
				}
				JOINT RClavicle
				{
					OFFSET	-2.6159	25.0050	8.5668
					CHANNELS 3 Xrotation Yrotation Zrotation
					JOINT RShoulder
					{
						OFFSET	-15.2850	3.5872	-5.8045
						CHANNELS 3 Xrotation Yrotation Zrotation
						JOINT RForearm
						{
							OFFSET	-32.4627	-0.1151	-0.2813
							CHANNELS 3 Xrotation Yrotation Zrotation
							JOINT RHand
							{
								OFFSET	-27.0808	0.0786	-0.1622
								CHANNELS 3 Xrotation Yrotation Zrotation
								JOINT RFinger1
								{
									OFFSET	-10.4958	0.9180	2.9152
									CHANNELS 3 Xrotation Yrotation Zrotation
									JOINT RFinger11
									{
										OFFSET	-3.9259	-0.9573	0.6918
										CHANNELS 3 Xrotation Yrotation Zrotation
										JOINT RFinger12
										{
											OFFSET	-2.6801	-0.6538	0.4724
											CHANNELS 3 Xrotation Yrotation Zrotation
											End Site
											{
												OFFSET	-1.9072	-0.5693	0.3094
											}
										}
									}
								}
								JOINT RFinger2
								{
									OFFSET	-10.6524	1.0601	0.2538
									CHANNELS 3 Xrotation Yrotation Zrotation
									JOINT RFinger21
									{
										OFFSET	-4.8542	0.0136	-0.0287
										CHANNELS 3 Xrotation Yrotation Zrotation
										JOINT RFinger22
										{
											OFFSET	-2.6907	0.0082	-0.0165
											CHANNELS 3 Xrotation Yrotation Zrotation
											End Site
											{
												OFFSET	-2.4167	-0.1707	0.0032
											}
										}
									}
								}
								JOINT RFinger3
								{
									OFFSET	-10.0954	0.7075	-2.3884
									CHANNELS 3 Xrotation Yrotation Zrotation
									JOINT RFinger31
									{
										OFFSET	-4.4047	-0.2230	-0.2758
										CHANNELS 3 Xrotation Yrotation Zrotation
										JOINT RFinger32
										{
											OFFSET	-2.5100	-0.1263	-0.1577
											CHANNELS 3 Xrotation Yrotation Zrotation
											End Site
											{
												OFFSET	-2.2193	-0.2729	-0.1049
											}
										}
									}
								}
								JOINT RFinger4
								{
									OFFSET	-9.3681	-0.7119	-4.1247
									CHANNELS 3 Xrotation Yrotation Zrotation
									JOINT RFinger41
									{
										OFFSET	-2.7093	-0.5650	-0.7479
										CHANNELS 3 Xrotation Yrotation Zrotation
										JOINT RFinger42
										{
											OFFSET	-1.9867	-0.4136	-0.5488
											CHANNELS 3 Xrotation Yrotation Zrotation
											End Site
											{
												OFFSET	-1.7634	-0.4845	-0.4046
											}
										}
									}
								}
								JOINT RFinger0
								{
									OFFSET	-2.1712	-1.6432	1.6459
									CHANNELS 3 Xrotation Yrotation Zrotation
									JOINT RFinger01
									{
										OFFSET	-4.0424	-1.3277	3.0479
										CHANNELS 3 Xrotation Yrotation Zrotation
										JOINT RFinger02
										{
											OFFSET	-2.6618	-0.9524	1.9177
											CHANNELS 3 Xrotation Yrotation Zrotation
											End Site
											{
												OFFSET	-1.9575	-0.6738	1.3404
											}
										}
									}
								}
							}
						}
					}
				}
			}
		}
	}
	JOINT RThigh
	{
		OFFSET	-10.8927	4.6027	-0.8978
		CHANNELS 3 Xrotation Yrotation Zrotation
		JOINT RShin
		{
			OFFSET	-0.8716	-47.3783	0.0000
			CHANNELS 3 Xrotation Yrotation Zrotation
			JOINT RFoot
			{
				OFFSET	0.0000	-46.5226	0.0000
				CHANNELS 3 Xrotation Yrotation Zrotation
				JOINT RToe
				{
					OFFSET	0.0000	-5.1132	10.6925
					CHANNELS 3 Xrotation Yrotation Zrotation
					End Site
					{
						OFFSET	0.0000	0.0000	7.1732
					}
				}
			}
		}
	}
	JOINT LThigh
	{
		OFFSET	10.8926	4.6031	-0.8978
		CHANNELS 3 Xrotation Yrotation Zrotation
		JOINT LShin
		{
			OFFSET	0.8717	-47.3786	0.0000
			CHANNELS 3 Xrotation Yrotation Zrotation
			JOINT LFoot
			{
				OFFSET	0.0000	-46.5226	0.0000
				CHANNELS 3 Xrotation Yrotation Zrotation
				JOINT LToe
				{
					OFFSET	0.0000	-5.1133	10.6925
					CHANNELS 3 Xrotation Yrotation Zrotation
					End Site
					{
						OFFSET	0.0000	0.0000	7.1732
					}
				}
			}
		}
	}
}
MOTION
Frames:	4
Frame Time: 0.0333333000
	9.5817	99.0401	-88.4283	-3.570521	-5.393855	-0.303359	0.000000	0.000000	0.000000	1.023400	1.302602	0.328262	3.386830	4.363236	1.004353	0.000000	0.000000	0.000000	0.873922	12.274770	-2.200597	0.000000	0.000000	-14.926550	19.708170	-34.187960	-52.787520	0.000000	-23.360280	0.000000	0.000000	0.000000	0.000000	0.000000	0.000000	0.000000	0.000000	0.000000	0.000000	0.000000	0.000000	0.000000	0.000000	0.000000	0.000000	0.000000	0.000000	0.000000	0.000000	0.000000	0.000000	0.000000	0.000000	0.000000	0.000000	0.000000	0.000000	0.000000	0.000000	0.000000	0.000000	0.000000	0.000000	0.000000	0.000000	0.000000	0.000000	0.000000	0.000000	0.000000	0.000000	0.000000	0.000000	0.000000	0.000000	0.000000	0.000000	0.000000	0.000000	0.000000	14.495880	30.777320	46.174340	42.275540	0.000000	20.583180	0.000000	21.035830	-7.792271	-15.513250	0.000000	0.000000	0.000000	0.000000	0.000000	0.000000	0.000000	0.000000	0.000000	0.000000	0.000000	0.000000	0.000000	0.000000	0.000000	0.000000	0.000000	0.000000	0.000000	0.000000	0.000000	0.000000	0.000000	0.000000	0.000000	0.000000	0.000000	0.000000	0.000000	0.000000	0.000000	0.000000	0.000000	0.000000	0.000000	0.000000	0.000000	0.000000	0.000000	0.000000	0.000000	0.000000	0.000000	0.000000	0.000000	-2.562079	-0.053493	-0.427154	12.163800	0.000001	0.000000	0.069837	1.281451	0.609296	0.000000	0.000000	0.000000	1.748920	0.378119	1.966277	9.145756	0.000001	0.000000	-0.290453	-0.223222	-0.108953	0.000000	0.000000	0.000000
	9.4635	99.1547	-88.2751	-3.654549	-6.431291	-0.280778	0.000000	0.000000	0.000000	1.052829	1.416170	0.333768	3.483171	4.742522	1.012497	0.000000	0.000000	0.000000	0.609072	12.684140	-2.260720	0.000000	0.000000	-14.819020	20.666060	-34.925320	-51.822980	0.000000	-23.137350	0.000000	0.000000	0.000000	0.000000	0.000000	0.000000	0.000000	0.000000	0.000000	0.000000	0.000000	0.000000	0.000000	0.000000	0.000000	0.000000	0.000000	0.000000	0.000000	0.000000	0.000000	0.000000	0.000000	0.000000	0.000000	0.000000	0.000000	0.000000	0.000000	0.000000	0.000000	0.000000	0.000000	0.000000	0.000000	0.000000	0.000000	0.000000	0.000000	0.000000	0.000000	0.000000	0.000000	0.000000	0.000000	0.000000	0.000000	0.000000	0.000000	0.000000	0.000000	14.598330	29.002570	46.124970	43.482430	0.000000	19.394130	0.000000	22.339210	-7.472026	-15.358640	0.000000	0.000000	0.000000	0.000000	0.000000	0.000000	0.000000	0.000000	0.000000	0.000000	0.000000	0.000000	0.000000	0.000000	0.000000	0.000000	0.000000	0.000000	0.000000	0.000000	0.000000	0.000000	0.000000	0.000000	0.000000	0.000000	0.000000	0.000000	0.000000	0.000000	0.000000	0.000000	0.000000	0.000000	0.000000	0.000000	0.000000	0.000000	0.000000	0.000000	0.000000	0.000000	0.000000	0.000000	0.000000	-2.754850	-0.240097	-0.405273	13.216140	0.000001	0.000000	0.276206	1.444916	0.687901	0.000000	0.000000	0.000000	2.524848	0.383847	1.965492	8.192825	0.000001	0.000000	-0.105796	-0.160974	-0.077238	0.000000	0.000000	0.000000
	9.4375	99.1088	-88.2527	-3.730509	-7.402470	-0.163822	0.000000	0.000000	0.000000	1.096908	1.514279	0.265958	3.635981	5.065322	0.774822	0.000000	0.000000	0.000000	0.490572	13.228100	-2.165004	0.000000	0.000000	-14.774020	21.826390	-36.405480	-50.758560	0.000000	-21.963020	0.000000	0.000000	0.000000	0.000000	0.000000	0.000000	0.000000	0.000000	0.000000	0.000000	0.000000	0.000000	0.000000	0.000000	0.000000	0.000000	0.000000	0.000000	0.000000	0.000000	0.000000	0.000000	0.000000	0.000000	0.000000	0.000000	0.000000	0.000000	0.000000	0.000000	0.000000	0.000000	0.000000	0.000000	0.000000	0.000000	0.000000	0.000000	0.000000	0.000000	0.000000	0.000000	0.000000	0.000000	0.000000	0.000000	0.000000	0.000000	0.000000	0.000000	0.000000	14.660320	27.803260	46.227340	44.204010	0.000000	19.041300	0.000000	22.954610	-7.546290	-15.086040	0.000000	0.000000	0.000000	0.000000	0.000000	0.000000	0.000000	0.000000	0.000000	0.000000	0.000000	0.000000	0.000000	0.000000	0.000000	0.000000	0.000000	0.000000	0.000000	0.000000	0.000000	0.000000	0.000000	0.000000	0.000000	0.000000	0.000000	0.000000	0.000000	0.000000	0.000000	0.000000	0.000000	0.000000	0.000000	0.000000	0.000000	0.000000	0.000000	0.000000	0.000000	0.000000	0.000000	0.000000	0.000000	-3.103323	-0.974058	-0.456412	13.721620	0.000001	0.000000	0.048647	1.216102	0.581534	0.000000	0.000000	0.000000	3.082915	0.437814	1.832818	7.571609	0.000001	0.000000	-0.105373	-0.690804	-0.332510	0.000000	0.000000	0.000000
	9.4533	99.0454	-88.2398	-3.906124	-8.212491	-0.046302	0.000000	0.000000	0.000000	1.126073	1.626336	0.197662	3.740287	5.433902	0.535386	0.000000	0.000000	0.000000	0.039095	13.310950	-2.029945	0.000000	0.000000	-14.751560	23.846980	-38.862480	-49.215930	0.000000	-20.708480	0.000000	0.000000	0.000000	0.000000	0.000000	0.000000	0.000000	0.000000	0.000000	0.000000	0.000000	0.000000	0.000000	0.000000	0.000000	0.000000	0.000000	0.000000	0.000000	0.000000	0.000000	0.000000	0.000000	0.000000	0.000000	0.000000	0.000000	0.000000	0.000000	0.000000	0.000000	0.000000	0.000000	0.000000	0.000000	0.000000	0.000000	0.000000	0.000000	0.000000	0.000000	0.000000	0.000000	0.000000	0.000000	0.000000	0.000000	0.000000	0.000000	0.000000	0.000000	14.681920	28.267500	47.020390	43.724040	0.000000	18.980480	0.000000	21.937170	-7.745789	-14.975960	0.000000	0.000000	0.000000	0.000000	0.000000	0.000000	0.000000	0.000000	0.000000	0.000000	0.000000	0.000000	0.000000	0.000000	0.000000	0.000000	0.000000	0.000000	0.000000	0.000000	0.000000	0.000000	0.000000	0.000000	0.000000	0.000000	0.000000	0.000000	0.000000	0.000000	0.000000	0.000000	0.000000	0.000000	0.000000	0.000000	0.000000	0.000000	0.000000	0.000000	0.000000	0.000000	0.000000	0.000000	0.000000	-3.378434	-2.336235	-0.618729	14.575940	0.000001	0.000000	-0.487091	0.686224	0.331149	0.000000	0.000000	0.000000	3.425416	0.436247	1.643991	7.470610	0.000001	0.000000	-0.072225	-0.891265	-0.431888	0.000000	0.000000	0.000000
